<svg width="186" height="32" viewBox="0 0 186 32" fill="none" xmlns="http://www.w3.org/2000/svg">
<path d="M20.473 19.4439H21.3998C21.4757 18.908 21.5142 18.3672 21.5151 17.8258C21.5151 11.6783 16.6986 6.70898 10.7575 6.70898C4.81642 6.70898 0 11.6783 0 17.8258C0 23.9733 4.81642 28.9404 10.7575 28.9404C12.9724 28.93 15.1302 28.226 16.937 26.9241C18.7437 25.6222 20.1114 23.7859 20.8537 21.6655H16.6225C16.0113 22.6941 15.15 23.5457 14.1213 24.1384C13.0927 24.7311 11.9313 25.0449 10.7488 25.0498C7.46175 25.0498 4.70329 22.6514 4.00498 19.4439H20.473ZM10.7575 10.6017C12.2605 10.6154 13.7188 11.1229 14.9144 12.0485C16.1099 12.9741 16.9786 14.268 17.3904 15.7368H4.13333C4.54438 14.269 5.41155 12.9757 6.60541 12.0498C7.79926 11.1239 9.25577 10.6152 10.7575 10.5995V10.6017Z" fill="#122345"/>
<path d="M62.2165 10.7945V6.90174H55.812V3.05762H54.9005L48.0957 9.86607V10.7945H51.9919V21.4891C51.9919 23.2816 52.6916 25.0009 53.9375 26.2698C55.1835 27.5387 56.8738 28.2536 58.6379 28.2577H62.2165V24.3606H58.6379C57.8878 24.3606 57.1685 24.0578 56.6381 23.5189C56.1078 22.98 55.8098 22.249 55.8098 21.4869V10.7945H62.2165Z" fill="#122345"/>
<path d="M42.1345 20.6046C41.5021 22.1465 40.3635 23.4182 38.9124 24.2033C37.4613 24.9884 35.7873 25.2384 34.1753 24.9107C32.5633 24.583 31.1128 23.698 30.0705 22.4061C29.0283 21.1142 28.4587 19.4953 28.4587 17.8248C28.4587 16.1543 29.0283 14.5354 30.0705 13.2436C31.1128 11.9517 32.5633 11.0666 34.1753 10.739C35.7873 10.4113 37.4613 10.6613 38.9124 11.4463C40.3635 12.2314 41.5021 13.5031 42.1345 15.0451H46.1678C45.5019 12.4253 43.9187 10.1422 41.7148 8.62377C39.511 7.10529 36.8377 6.45568 34.1962 6.79668C31.5547 7.13767 29.1263 8.44588 27.3661 10.4761C25.6059 12.5063 24.6348 15.1191 24.6348 17.8248C24.6348 20.5305 25.6059 23.1434 27.3661 25.1736C29.1263 27.2038 31.5547 28.512 34.1962 28.853C36.8377 29.194 39.511 28.5444 41.7148 27.0259C43.9187 25.5074 45.5019 23.2243 46.1678 20.6046H42.1345Z" fill="#122345"/>
<path d="M75.7048 6.70935C69.4613 6.70935 64.3926 11.6853 64.3926 17.8261C64.3926 23.967 69.4548 28.9407 75.7048 28.9407C81.8244 28.9407 86.7996 24.1571 86.9997 18.1842V6.68945L75.7048 6.70935ZM75.7048 25.0568C71.5715 25.0568 68.2279 21.8162 68.2279 17.8328C68.2279 13.8494 71.5911 10.5999 75.7048 10.5999C79.8186 10.5999 83.1884 13.8405 83.1884 17.8261C83.1884 21.8117 79.8382 25.0502 75.7048 25.0502V25.0568Z" fill="#122345"/>
<path d="M116.333 10.667H105.666V21.3337H116.333V10.667Z" fill="#7367F0"/>
<path opacity="0.4" d="M101.666 29.333C103.866 29.333 105.666 27.533 105.666 25.333V21.333H101.666C99.466 21.333 97.666 23.133 97.666 25.333C97.666 27.533 99.466 29.333 101.666 29.333Z" fill="#7367F0"/>
<path opacity="0.4" d="M101.666 10.667H105.666V6.66699C105.666 4.46699 103.866 2.66699 101.666 2.66699C99.466 2.66699 97.666 4.46699 97.666 6.66699C97.666 8.86699 99.466 10.667 101.666 10.667Z" fill="#7367F0"/>
<path opacity="0.4" d="M116.334 10.667H120.334C122.534 10.667 124.334 8.86699 124.334 6.66699C124.334 4.46699 122.534 2.66699 120.334 2.66699C118.134 2.66699 116.334 4.46699 116.334 6.66699V10.667Z" fill="#7367F0"/>
<path opacity="0.4" d="M120.334 29.333C122.534 29.333 124.334 27.533 124.334 25.333C124.334 23.133 122.534 21.333 120.334 21.333H116.334V25.333C116.334 27.533 118.134 29.333 120.334 29.333Z" fill="#7367F0"/>
<path d="M139.494 16.8125V26H137.148V5.63636H139.494V13.1136H139.693C140.051 12.3248 140.588 11.6984 141.304 11.2344C142.027 10.7637 142.988 10.5284 144.187 10.5284C145.228 10.5284 146.14 10.7372 146.922 11.1548C147.704 11.5658 148.311 12.1989 148.741 13.054C149.179 13.9025 149.398 14.983 149.398 16.2955V26H147.051V16.4545C147.051 15.2415 146.736 14.3035 146.107 13.6406C145.483 12.9711 144.618 12.6364 143.511 12.6364C142.742 12.6364 142.053 12.7988 141.443 13.1236C140.84 13.4484 140.363 13.9223 140.011 14.5455C139.667 15.1686 139.494 15.9242 139.494 16.8125ZM163.316 19.7557V10.7273H165.662V26H163.316V23.4148H163.157C162.799 24.1903 162.242 24.8499 161.486 25.3935C160.73 25.9304 159.776 26.1989 158.623 26.1989C157.668 26.1989 156.819 25.9901 156.077 25.5724C155.335 25.1482 154.751 24.5118 154.327 23.6634C153.903 22.8082 153.691 21.7311 153.691 20.4318V10.7273H156.037V20.2727C156.037 21.3864 156.349 22.2746 156.972 22.9375C157.602 23.6004 158.404 23.9318 159.378 23.9318C159.962 23.9318 160.555 23.7827 161.158 23.4844C161.768 23.1861 162.278 22.7287 162.689 22.1122C163.107 21.4957 163.316 20.7102 163.316 19.7557ZM170.278 26V5.63636H172.625V13.1534H172.824C172.996 12.8883 173.235 12.5502 173.54 12.1392C173.851 11.7216 174.295 11.3504 174.872 11.0256C175.455 10.6941 176.244 10.5284 177.239 10.5284C178.525 10.5284 179.658 10.8499 180.639 11.4929C181.62 12.1359 182.386 13.0473 182.936 14.2273C183.486 15.4072 183.761 16.7992 183.761 18.4034C183.761 20.0208 183.486 21.4228 182.936 22.6094C182.386 23.7893 181.624 24.7041 180.649 25.3537C179.675 25.9967 178.551 26.3182 177.278 26.3182C176.297 26.3182 175.512 26.1558 174.922 25.831C174.332 25.4995 173.878 25.125 173.56 24.7074C173.241 24.2831 172.996 23.9318 172.824 23.6534H172.545V26H170.278ZM172.585 18.3636C172.585 19.517 172.754 20.5346 173.092 21.4162C173.43 22.2912 173.924 22.9773 174.574 23.4744C175.223 23.965 176.019 24.2102 176.96 24.2102C177.941 24.2102 178.76 23.9517 179.416 23.4347C180.079 22.911 180.576 22.2083 180.908 21.3267C181.246 20.4384 181.415 19.4508 181.415 18.3636C181.415 17.2898 181.249 16.322 180.918 15.4602C180.593 14.5919 180.099 13.9058 179.436 13.402C178.78 12.8916 177.955 12.6364 176.96 12.6364C176.006 12.6364 175.204 12.8783 174.554 13.3622C173.904 13.8395 173.414 14.509 173.082 15.3707C172.751 16.2259 172.585 17.2235 172.585 18.3636Z" fill="#8176F1"/>
</svg>
